<?xml version="1.0" encoding="utf-8"?>
<!-- Generator: Adobe Illustrator 24.0.1, SVG Export Plug-In . SVG Version: 6.00 Build 0)  -->
<svg version="1.1" id="Layer_1" xmlns="http://www.w3.org/2000/svg" xmlns:xlink="http://www.w3.org/1999/xlink" x="0px" y="0px"
	 viewBox="0 0 475.6 167.9" style="enable-background:new 0 0 475.6 167.9;" xml:space="preserve">
<g>
	<path d="M230.4,16.1c0-0.1,0-0.1,0-0.2c0-0.2,0-0.3-0.1-0.5c0-0.1,0-0.1,0-0.2c0-0.2-0.1-0.3-0.1-0.5c0,0,0-0.1,0-0.1
		c-0.1-0.2-0.1-0.3-0.2-0.5c0,0,0-0.1-0.1-0.1c-0.1-0.2-0.2-0.3-0.2-0.5c0,0,0-0.1-0.1-0.1c-0.1-0.2-0.2-0.3-0.3-0.5
		c0-0.1-0.1-0.1-0.1-0.2c-0.1-0.1-0.2-0.2-0.3-0.4c-0.1-0.1-0.2-0.3-0.4-0.4c0,0-0.1-0.1-0.1-0.1l-3.7-3.7l-6.1-6.1
		c-1.3-1.3-3.1-2.1-5-2.1h0H194h0c-1.9,0-3.6,0.7-5,2.1l-6.1,6.1l-3.7,3.7c0,0-0.1,0.1-0.1,0.1c-0.1,0.1-0.3,0.3-0.4,0.4
		c-0.1,0.1-0.2,0.2-0.3,0.4c0,0.1-0.1,0.1-0.1,0.2c-0.1,0.2-0.2,0.3-0.3,0.5c0,0,0,0.1-0.1,0.1c-0.1,0.2-0.2,0.3-0.2,0.5
		c0,0,0,0.1-0.1,0.1c-0.1,0.2-0.1,0.3-0.2,0.5c0,0,0,0.1,0,0.1c0,0.2-0.1,0.3-0.1,0.5c0,0.1,0,0.1,0,0.2c0,0.2-0.1,0.3-0.1,0.5
		c0,0.1,0,0.1,0,0.2c0,0.2,0,0.5,0,0.7v0v39.2v0c0,0.2,0,0.5,0,0.7c0,0.1,0,0.1,0,0.2c0,0.2,0,0.3,0.1,0.5c0,0.1,0,0.1,0,0.2
		c0,0.2,0.1,0.3,0.1,0.5c0,0,0,0.1,0,0.1c0.1,0.2,0.1,0.3,0.2,0.5c0,0,0,0.1,0.1,0.1c0.1,0.2,0.2,0.3,0.2,0.5c0,0,0,0.1,0.1,0.1
		c0.1,0.2,0.2,0.3,0.3,0.5c0,0.1,0.1,0.1,0.1,0.2c0.1,0.1,0.2,0.2,0.3,0.4c0.1,0.1,0.2,0.3,0.4,0.4c0,0,0.1,0.1,0.1,0.1l3.7,3.7
		l6.1,6.1c1.3,1.3,3.1,2.1,5,2.1h0h19.6h0c1.9,0,3.6-0.7,5-2.1l6.1-6.1l3.7-3.7c0,0,0.1-0.1,0.1-0.1c0.1-0.1,0.3-0.3,0.4-0.4
		c0.1-0.1,0.2-0.2,0.3-0.4c0-0.1,0.1-0.1,0.1-0.2c0.1-0.2,0.2-0.3,0.3-0.5c0,0,0-0.1,0.1-0.1c0.1-0.2,0.2-0.3,0.2-0.5
		c0,0,0-0.1,0.1-0.1c0.1-0.2,0.1-0.3,0.2-0.5c0,0,0-0.1,0-0.1c0-0.2,0.1-0.3,0.1-0.5c0-0.1,0-0.1,0-0.2c0-0.2,0.1-0.3,0.1-0.5
		c0-0.1,0-0.1,0-0.2c0-0.2,0-0.5,0-0.7v0V16.8v0C230.4,16.6,230.4,16.4,230.4,16.1z M196.9,58.9l-5.7-5.7V19.7l5.7-5.7h13.8l5.7,5.7
		v33.4l-5.7,5.7H196.9z"/>
	<path d="M162.4,56V40.2c0-3.9-3.1-7-7-7h-17.7c-3.9,0-7,3.1-7,7s3.1,7,7,7h6.1h4.6v6l-5.7,5.7h-13.8l-5.7-5.7V19.7l5.7-5.7h13.8
		l7.8,7.8c2.7,2.7,7.2,2.7,9.9,0c2.7-2.7,2.7-7.2,0-9.9l-9.8-9.8c-1.3-1.3-3.1-2.1-5-2.1h-19.6c-1.9,0-3.6,0.7-5,2.1l-9.8,9.8
		c-1.3,1.3-2.1,3.1-2.1,5v39.2c0,1.9,0.7,3.6,2.1,5l9.8,9.8c1.3,1.3,3.1,2.1,5,2.1h19.6c1.9,0,3.6-0.7,5-2.1l9.8-9.8
		C161.7,59.6,162.4,57.8,162.4,56L162.4,56z"/>
	<path d="M366.5,16.1c0-0.1,0-0.1,0-0.2c0-0.2,0-0.3-0.1-0.5c0-0.1,0-0.1,0-0.2c0-0.2-0.1-0.3-0.1-0.5c0,0,0-0.1,0-0.1
		c-0.1-0.2-0.1-0.3-0.2-0.5c0,0,0-0.1-0.1-0.1c-0.1-0.2-0.2-0.3-0.2-0.5c0,0,0-0.1-0.1-0.1c-0.1-0.2-0.2-0.3-0.3-0.5
		c0-0.1-0.1-0.1-0.1-0.2c-0.1-0.1-0.2-0.2-0.3-0.4c-0.1-0.1-0.2-0.3-0.4-0.4c0,0-0.1-0.1-0.1-0.1l-3.7-3.7l-6.1-6.1
		c-1.3-1.3-3.1-2.1-5-2.1h0H330h0c-1.9,0-3.6,0.7-5,2.1L319,8.2l-3.7,3.7c0,0-0.1,0.1-0.1,0.1c-0.1,0.1-0.3,0.3-0.4,0.4
		c-0.1,0.1-0.2,0.2-0.3,0.4c0,0.1-0.1,0.1-0.1,0.2c-0.1,0.2-0.2,0.3-0.3,0.5c0,0,0,0.1-0.1,0.1c-0.1,0.2-0.2,0.3-0.2,0.5
		c0,0,0,0.1-0.1,0.1c-0.1,0.2-0.1,0.3-0.2,0.5c0,0,0,0.1,0,0.1c0,0.2-0.1,0.3-0.1,0.5c0,0.1,0,0.1,0,0.2c0,0.2-0.1,0.3-0.1,0.5
		c0,0.1,0,0.1,0,0.2c0,0.2,0,0.5,0,0.7v0v39.2v0c0,0.2,0,0.5,0,0.7c0,0.1,0,0.1,0,0.2c0,0.2,0,0.3,0.1,0.5c0,0.1,0,0.1,0,0.2
		c0,0.2,0.1,0.3,0.1,0.5c0,0,0,0.1,0,0.1c0.1,0.2,0.1,0.3,0.2,0.5c0,0,0,0.1,0.1,0.1c0.1,0.2,0.2,0.3,0.2,0.5c0,0,0,0.1,0.1,0.1
		c0.1,0.2,0.2,0.3,0.3,0.5c0,0.1,0.1,0.1,0.1,0.2c0.1,0.1,0.2,0.2,0.3,0.4c0.1,0.1,0.2,0.3,0.4,0.4c0,0,0.1,0.1,0.1,0.1l3.7,3.7
		l6.1,6.1c1.3,1.3,3.1,2.1,5,2.1h0h19.6h0c1.9,0,3.6-0.7,5-2.1l6.1-6.1l3.7-3.7c0,0,0.1-0.1,0.1-0.1c0.1-0.1,0.3-0.3,0.4-0.4
		c0.1-0.1,0.2-0.2,0.3-0.4c0-0.1,0.1-0.1,0.1-0.2c0.1-0.2,0.2-0.3,0.3-0.5c0,0,0-0.1,0.1-0.1c0.1-0.2,0.2-0.3,0.2-0.5
		c0,0,0-0.1,0.1-0.1c0.1-0.2,0.1-0.3,0.2-0.5c0,0,0-0.1,0-0.1c0-0.2,0.1-0.3,0.1-0.5c0-0.1,0-0.1,0-0.2c0-0.2,0.1-0.3,0.1-0.5
		c0-0.1,0-0.1,0-0.2c0-0.2,0-0.5,0-0.7v0V16.8v0C366.5,16.6,366.5,16.4,366.5,16.1z M332.9,58.9l-5.7-5.7V19.7l5.7-5.7h13.8l5.7,5.7
		v33.4l-5.7,5.7H332.9z"/>
	<path d="M298.5,56V40.2c0-3.9-3.1-7-7-7h-17.7c-3.9,0-7,3.1-7,7s3.1,7,7,7h6.1h4.6v6l-5.7,5.7h-13.8l-5.7-5.7V19.7l5.7-5.7h13.8
		l7.8,7.8c2.7,2.7,7.2,2.7,9.9,0c2.7-2.7,2.7-7.2,0-9.9l-9.8-9.8c-1.3-1.3-3.1-2.1-5-2.1H262c-1.9,0-3.6,0.7-5,2.1l-9.8,9.8
		c-1.3,1.3-2.1,3.1-2.1,5v39.2c0,1.9,0.7,3.6,2.1,5l9.8,9.8c1.3,1.3,3.1,2.1,5,2.1h19.6c1.9,0,3.6-0.7,5-2.1l9.8-9.8
		C297.8,59.6,298.5,57.8,298.5,56L298.5,56z"/>
</g>
<g>
	<path d="M162.6,130.8C162.6,130.8,162.6,130.8,162.6,130.8l-3.3-29.6c-0.4-3.5-3.4-6.2-7-6.2h-6.5h-13.1h-6.5c-3.6,0-6.6,2.7-7,6.2
		l-3.3,29.5c0,0,0,0,0,0l-3.3,29.3c-0.4,3.8,2.3,7.3,6.2,7.7c0.3,0,0.5,0,0.8,0c3.5,0,6.6-2.6,7-6.2l2.6-23.1h20.2l2.6,23.1
		c0.4,3.8,3.9,6.6,7.7,6.2c3.8-0.4,6.6-3.9,6.2-7.7L162.6,130.8z M130.8,124.5l1.7-15.5h0.3h13.1h0.3l1.7,15.5H130.8z"/>
	<path d="M335.5,109c3.9,0,7-3.1,7-7s-3.1-7-7-7h-26.2c-3.9,0-7,3.1-7,7s3.1,7,7,7h6.1v44.9h-6.1c-3.9,0-7,3.1-7,7s3.1,7,7,7h26.2
		c3.9,0,7-3.1,7-7s-3.1-7-7-7h-6.1V109H335.5z"/>
	<path d="M376.1,109h13.8l7.8,7.8c2.7,2.7,7.2,2.7,9.9,0c2.7-2.7,2.7-7.2,0-9.9l-9.8-9.8c-1.3-1.3-3.1-2.1-5-2.1h-19.6
		c-1.9,0-3.6,0.7-5,2.1l-9.8,9.8c-1.3,1.3-2.1,3.1-2.1,5v39.2c0,1.9,0.7,3.6,2.1,5l9.8,9.8c1.3,1.3,3.1,2.1,5,2.1h19.6
		c1.9,0,3.6-0.7,5-2.1l9.8-9.8c2.7-2.7,2.7-7.2,0-9.9c-2.7-2.7-7.2-2.7-9.9,0l-7.8,7.8h-13.8l-5.7-5.7v-33.4L376.1,109z"/>
	<path d="M284.5,95h-39.3c-3.9,0-7,3.1-7,7s3.1,7,7,7h12.6v51.9c0,3.9,3.1,7,7,7s7-3.1,7-7V109h12.6c3.9,0,7-3.1,7-7
		S288.4,95,284.5,95z"/>
	<path d="M463.8,126.5c-1.3-1.3-3.1-2.1-5-2.1h-16.7l-5.7-5.7v-4l5.7-5.7h14.6l8,5.4c3.2,2.1,7.6,1.3,9.7-1.9
		c2.1-3.2,1.3-7.6-1.9-9.7l-9.8-6.5c-1.2-0.8-2.5-1.2-3.9-1.2h-19.6c-1.9,0-3.6,0.7-5,2.1l-9.8,9.8c-1.3,1.3-2.1,3.1-2.1,5v9.8
		c0,1.9,0.7,3.6,2.1,5l9.8,9.8c1.3,1.3,3.1,2.1,5,2.1h16.7l5.7,5.7v4l-5.7,5.7h-14.6l-8-5.4c-3.2-2.1-7.6-1.3-9.7,1.9
		c-2.1,3.2-1.3,7.6,1.9,9.7l9.8,6.5c1.2,0.8,2.5,1.2,3.9,1.2h19.6c1.9,0,3.6-0.7,5-2.1l9.8-9.8c1.3-1.3,2.1-3.1,2.1-5v-9.8
		c0-1.9-0.7-3.6-2.1-5L463.8,126.5z"/>
	<path d="M197,109h14.6l8,5.4c3.2,2.1,7.6,1.3,9.7-1.9c2.1-3.2,1.3-7.6-1.9-9.7l-9.8-6.5c-1.2-0.8-2.5-1.2-3.9-1.2h-19.6
		c-1.9,0-3.6,0.7-5,2.1l-9.8,9.8c-1.3,1.3-2.1,3.1-2.1,5v9.8c0,1.9,0.7,3.6,2.1,5l9.8,9.8c1.3,1.3,3.1,2.1,5,2.1h16.7l5.7,5.7v4
		l-5.7,5.7h-14.6l-8-5.4c-3.2-2.1-7.6-1.3-9.7,1.9s-1.3,7.6,1.9,9.7l9.8,6.5c1.2,0.8,2.5,1.2,3.9,1.2h19.6c1.9,0,3.6-0.7,5-2.1
		l9.8-9.8c1.3-1.3,2.1-3.1,2.1-5v-9.8c0-1.9-0.7-3.6-2.1-5l-9.8-9.8c-1.3-1.3-3.1-2.1-5-2.1H197l-5.7-5.7v-4L197,109z"/>
	<path d="M41.4,97.1c-1.3-1.3-3.1-2.1-5-2.1H7c-3.9,0-7,3.1-7,7v58.9c0,3.9,3.1,7,7,7s7-3.1,7-7v-19.2h22.4c1.9,0,3.6-0.7,5-2.1
		l9.8-9.8c1.3-1.3,2.1-3.1,2.1-5v-13.1c0-1.9-0.7-3.6-2.1-5L41.4,97.1z M39.3,122l-5.7,5.7H14V109h19.5l5.7,5.7V122z"/>
	<path d="M96.7,153.9H77.6V102c0-3.9-3.1-7-7-7s-7,3.1-7,7v58.9c0,3.9,3.1,7,7,7h26.2c3.9,0,7-3.1,7-7S100.6,153.9,96.7,153.9z"/>
</g>
</svg>
