<svg xmlns="http://www.w3.org/2000/svg" viewBox="0 0 475.7 168.1"><defs><style>.a{fill:#ed0000;}</style></defs><path class="a" d="M230.4,16.1v-.2a.9.9,0,0,0-.1-.5v-.2c0-.2-.1-.3-.1-.5v-.1c-.1-.2-.1-.3-.2-.5a.1.1,0,0,0-.1-.1c-.1-.2-.2-.3-.2-.5a.1.1,0,0,0-.1-.1c-.1-.2-.2-.3-.3-.5s-.1-.1-.1-.2a1.38,1.38,0,0,1-.3-.4c-.1-.1-.2-.3-.4-.4l-.1-.1-3.7-3.7L218.6,2a7.12,7.12,0,0,0-5-2.1H194A6.88,6.88,0,0,0,189,2l-6.1,6.1-3.7,3.7-.1.1-.4.4a1.38,1.38,0,0,0-.3.4c0,.1-.1.1-.1.2s-.2.3-.3.5a.1.1,0,0,1-.1.1c-.1.2-.2.3-.2.5a.1.1,0,0,1-.1.1c-.1.2-.1.3-.2.5v.1c0,.2-.1.3-.1.5v.2c0,.2-.1.3-.1.5v.9h0V56h0v.9a.9.9,0,0,0,.1.5v.2c0,.2.1.3.1.5v.1c.1.2.1.3.2.5a.1.1,0,0,0,.1.1c.1.2.2.3.2.5a.1.1,0,0,0,.1.1c.1.2.2.3.3.5s.1.1.1.2a1.38,1.38,0,0,1,.3.4c.1.1.2.3.4.4l.1.1,3.7,3.7,6.1,6.1a7.12,7.12,0,0,0,5,2.1h19.6a6.88,6.88,0,0,0,5-2.1l6.1-6.1,3.7-3.7.1-.1.4-.4a1.38,1.38,0,0,0,.3-.4c0-.1.1-.1.1-.2s.2-.3.3-.5a.1.1,0,0,1,.1-.1c.1-.2.2-.3.2-.5a.1.1,0,0,1,.1-.1c.1-.2.1-.3.2-.5v-.1c0-.2.1-.3.1-.5v-.2c0-.2.1-.3.1-.5V56h0V16.8h0ZM196.9,58.9l-5.7-5.7V19.7l5.7-5.7h13.8l5.7,5.7V53.1l-5.7,5.7H196.9Z" transform="translate(0 0.1)"/><path class="a" d="M162.4,56V40.2a7,7,0,0,0-7-7H137.7a7,7,0,0,0,0,14h10.7v6l-5.7,5.7H128.9l-5.7-5.7V19.7l5.7-5.7h13.8l7.8,7.8a7,7,0,0,0,9.9-9.9l-9.8-9.8a7.12,7.12,0,0,0-5-2.1H126a6.88,6.88,0,0,0-5,2.1l-9.8,9.8a7.12,7.12,0,0,0-2.1,5V56.1a6.88,6.88,0,0,0,2.1,5l9.8,9.8a7.12,7.12,0,0,0,5,2.1h19.6a6.88,6.88,0,0,0,5-2.1l9.8-9.8a7.82,7.82,0,0,0,2-5.1Z" transform="translate(0 0.1)"/><path class="a" d="M366.5,16.1v-.2a.9.9,0,0,0-.1-.5v-.2c0-.2-.1-.3-.1-.5v-.1c-.1-.2-.1-.3-.2-.5a.1.1,0,0,0-.1-.1c-.1-.2-.2-.3-.2-.5a.1.1,0,0,0-.1-.1c-.1-.2-.2-.3-.3-.5s-.1-.1-.1-.2a1.38,1.38,0,0,1-.3-.4c-.1-.1-.2-.3-.4-.4l-.1-.1-3.7-3.7L354.7,2a7.12,7.12,0,0,0-5-2.1H330A6.88,6.88,0,0,0,325,2l-6,6.2-3.7,3.7-.1.1-.4.4a1.38,1.38,0,0,0-.3.4c0,.1-.1.1-.1.2s-.2.3-.3.5a.1.1,0,0,1-.1.1c-.1.2-.2.3-.2.5a.1.1,0,0,1-.1.1c-.1.2-.1.3-.2.5v.1c0,.2-.1.3-.1.5v.2c0,.2-.1.3-.1.5v.9h0V56.1h0V57a.9.9,0,0,0,.1.5v.2c0,.2.1.3.1.5v.1c.1.2.1.3.2.5a.1.1,0,0,0,.1.1c.1.2.2.3.2.5a.1.1,0,0,0,.1.1c.1.2.2.3.3.5s.1.1.1.2a1.38,1.38,0,0,1,.3.4c.1.1.2.3.4.4l.1.1,3.7,3.7,6.1,6.1a7.12,7.12,0,0,0,5,2.1h19.6a6.88,6.88,0,0,0,5-2.1l6.1-6.1,3.7-3.7.1-.1.4-.4a1.38,1.38,0,0,0,.3-.4c0-.1.1-.1.1-.2s.2-.3.3-.5a.1.1,0,0,1,.1-.1c.1-.2.2-.3.2-.5a.1.1,0,0,1,.1-.1c.1-.2.1-.3.2-.5v-.1c0-.2.1-.3.1-.5v-.2c0-.2.1-.3.1-.5v-.9h0V16.8h0ZM332.9,58.9l-5.7-5.7V19.7l5.7-5.7h13.8l5.7,5.7V53.1l-5.7,5.7H332.9Z" transform="translate(0 0.1)"/><path class="a" d="M298.5,56V40.2a7,7,0,0,0-7-7H273.8a7,7,0,0,0,0,14h10.7v6l-5.7,5.7H265l-5.7-5.7V19.7L265,14h13.8l7.8,7.8a7,7,0,0,0,9.9-9.9l-9.8-9.8a7.12,7.12,0,0,0-5-2.1H262a6.88,6.88,0,0,0-5,2.1l-9.8,9.8a7.12,7.12,0,0,0-2.1,5V56.1a6.88,6.88,0,0,0,2.1,5l9.8,9.8a7.12,7.12,0,0,0,5,2.1h19.6a6.88,6.88,0,0,0,5-2.1l9.8-9.8a7.45,7.45,0,0,0,2.1-5.1Z" transform="translate(0 0.1)"/><path class="a" d="M162.6,130.8h0l-3.3-29.6a7,7,0,0,0-7-6.2H126.2a7,7,0,0,0-7,6.2l-3.3,29.5h0L112.6,160a7,7,0,0,0,6.2,7.7h.8a7,7,0,0,0,7-6.2l2.6-23.1h20.2l2.6,23.1a7,7,0,0,0,13.9-1.5Zm-31.8-6.3,1.7-15.5h13.7l1.7,15.5Z" transform="translate(0 0.1)"/><path class="a" d="M335.5,109a7,7,0,0,0,0-14H309.3a7,7,0,0,0,0,14h6.1v44.9h-6.1a7,7,0,0,0,0,14h26.2a7,7,0,0,0,0-14h-6.1V109Z" transform="translate(0 0.1)"/><path class="a" d="M376.1,109h13.8l7.8,7.8a7,7,0,0,0,9.9-9.9l-9.8-9.8a7.12,7.12,0,0,0-5-2.1H373.2a6.88,6.88,0,0,0-5,2.1l-9.8,9.8a7.12,7.12,0,0,0-2.1,5v39.2a6.88,6.88,0,0,0,2.1,5l9.8,9.8a7.12,7.12,0,0,0,5,2.1h19.6a6.88,6.88,0,0,0,5-2.1l9.8-9.8a7,7,0,0,0-9.9-9.9l-7.8,7.8H376.1l-5.7-5.7V114.9Z" transform="translate(0 0.1)"/><path class="a" d="M284.5,95H245.2a7,7,0,0,0,0,14h12.6v51.9a7,7,0,1,0,14,0V109h12.6a7,7,0,0,0,7-7A6.87,6.87,0,0,0,284.5,95Z" transform="translate(0 0.1)"/><path class="a" d="M463.8,126.5a7.12,7.12,0,0,0-5-2.1H442.1l-5.7-5.7v-4l5.7-5.7h14.6l8,5.4a7,7,0,1,0,7.8-11.6l-9.8-6.5a6.89,6.89,0,0,0-3.9-1.2H439.2a6.88,6.88,0,0,0-5,2.1l-9.8,9.8a7.12,7.12,0,0,0-2.1,5v9.8a6.88,6.88,0,0,0,2.1,5l9.8,9.8a7.12,7.12,0,0,0,5,2.1h16.7l5.7,5.7v4l-5.7,5.7H441.3l-8-5.4a7,7,0,1,0-7.8,11.6l9.8,6.5a6.89,6.89,0,0,0,3.9,1.2h19.6a6.88,6.88,0,0,0,5-2.1l9.8-9.8a7.12,7.12,0,0,0,2.1-5v-9.8a6.88,6.88,0,0,0-2.1-5Z" transform="translate(0 0.1)"/><path class="a" d="M197,109h14.6l8,5.4a7,7,0,0,0,7.8-11.6l-9.8-6.5a6.89,6.89,0,0,0-3.9-1.2H194.1a6.88,6.88,0,0,0-5,2.1l-9.8,9.8a7.12,7.12,0,0,0-2.1,5v9.8a6.88,6.88,0,0,0,2.1,5l9.8,9.8a7.12,7.12,0,0,0,5,2.1h16.7l5.7,5.7v4l-5.7,5.7H196.2l-8-5.4a7,7,0,1,0-7.8,11.6l9.8,6.5a6.89,6.89,0,0,0,3.9,1.2h19.6a6.88,6.88,0,0,0,5-2.1l9.8-9.8a7.12,7.12,0,0,0,2.1-5v-9.8a6.88,6.88,0,0,0-2.1-5l-9.8-9.8a7.12,7.12,0,0,0-5-2.1H197l-5.7-5.7v-4Z" transform="translate(0 0.1)"/><path class="a" d="M41.4,97.1a7.12,7.12,0,0,0-5-2.1H7a7,7,0,0,0-7,7v58.9a7,7,0,0,0,7,7,7,7,0,0,0,7-7V141.7H36.4a6.88,6.88,0,0,0,5-2.1l9.8-9.8a7.12,7.12,0,0,0,2.1-5V111.7a6.88,6.88,0,0,0-2.1-5ZM39.3,122l-5.7,5.7H14V109H33.5l5.7,5.7V122Z" transform="translate(0 0.1)"/><path class="a" d="M96.7,153.9H77.6V102a7,7,0,0,0-14,0v58.9a7,7,0,0,0,7,7H96.8a7,7,0,0,0,7-7A7,7,0,0,0,96.7,153.9Z" transform="translate(0 0.1)"/></svg>