<svg xmlns="http://www.w3.org/2000/svg" viewBox="0 0 1010.24 1650.4"><defs><style>.cls-1{fill:#fff;}</style></defs><title>Asset 1</title><g id="Layer_2" data-name="Layer 2"><g id="Layer_1-2" data-name="Layer 1"><path class="cls-1" d="M221.86,1620.66h-51.3a7.08,7.08,0,0,1-7.08-7.09V1511a15.15,15.15,0,0,0-14.15-15.27,14.87,14.87,0,0,0-15.59,14.85v125a14.87,14.87,0,0,0,14.87,14.87h73.67a14.87,14.87,0,0,0,14.85-15.59A15.15,15.15,0,0,0,221.86,1620.66Z"/><path class="cls-1" d="M720.78,1525.45a14.87,14.87,0,0,0,14.85-15.59,15.15,15.15,0,0,0-15.27-14.15H665.67a15.14,15.14,0,0,0-15.27,14.15,14.87,14.87,0,0,0,14.85,15.59h5.81a7.09,7.09,0,0,1,7.09,7.09v81a7.09,7.09,0,0,1-7.09,7.09h-5.39a15.13,15.13,0,0,0-15.27,14.15,14.87,14.87,0,0,0,14.85,15.59h55.11a15.15,15.15,0,0,0,15.27-14.15,14.87,14.87,0,0,0-14.85-15.59H715a7.08,7.08,0,0,1-7.09-7.09v-81a7.08,7.08,0,0,1,7.09-7.09Z"/><path class="cls-1" d="M808,1525.45h23.46a7.12,7.12,0,0,1,5,2.07l14.4,14.4a14.87,14.87,0,1,0,21-21L851,1500.07a14.87,14.87,0,0,0-10.52-4.36H798.86a14.87,14.87,0,0,0-10.52,4.36l-20.82,20.82a14.87,14.87,0,0,0-4.36,10.52v83.29a14.87,14.87,0,0,0,4.36,10.52L788.34,1646a14.87,14.87,0,0,0,10.52,4.36H840.5A14.87,14.87,0,0,0,851,1646l20.82-20.82a14.87,14.87,0,1,0-21-21l-14.4,14.4a7.12,7.12,0,0,1-5,2.07H808a7.12,7.12,0,0,1-5-2.07l-8-8a7.08,7.08,0,0,1-2.07-5V1540.5a7.08,7.08,0,0,1,2.07-5l8-8A7.12,7.12,0,0,1,808,1525.45Z"/><path class="cls-1" d="M614.73,1495.71H531.86a15.14,15.14,0,0,0-15.27,14.15,14.86,14.86,0,0,0,14.85,15.59h19.69a7.09,7.09,0,0,1,7.09,7.09v102.57a15.15,15.15,0,0,0,14.15,15.27A14.87,14.87,0,0,0,588,1635.53v-103a7.08,7.08,0,0,1,7.09-7.09h19.27a15.13,15.13,0,0,0,15.27-14.15A14.86,14.86,0,0,0,614.73,1495.71Z"/><path class="cls-1" d="M985.06,1562.54a14.84,14.84,0,0,0-10.51-4.35H942a7.11,7.11,0,0,1-5-2.08l-8-8a7.08,7.08,0,0,1-2.07-5v-2.64a7.08,7.08,0,0,1,2.07-5l8-8a7.14,7.14,0,0,1,5-2.07h25.91a7.09,7.09,0,0,1,3.93,1.19l15.29,10.19a14.87,14.87,0,1,0,16.49-24.74l-20.82-13.88a14.85,14.85,0,0,0-8.25-2.5H932.9a14.87,14.87,0,0,0-10.51,4.36l-20.82,20.82a14.87,14.87,0,0,0-4.36,10.52v20.82a14.85,14.85,0,0,0,4.36,10.51l20.82,20.83a14.86,14.86,0,0,0,10.51,4.35h32.56a7.09,7.09,0,0,1,5,2.08l8,8a7.09,7.09,0,0,1,2.08,5v2.64a7.09,7.09,0,0,1-2.08,5l-8,8a7.12,7.12,0,0,1-5,2.07H939.55a7,7,0,0,1-3.93-1.19l-15.29-10.19a14.87,14.87,0,0,0-16.5,24.74l20.83,13.88a14.84,14.84,0,0,0,8.24,2.5h41.65a14.85,14.85,0,0,0,10.51-4.36l20.83-20.82a14.86,14.86,0,0,0,4.35-10.52v-20.82a14.86,14.86,0,0,0-4.35-10.51Z"/><path class="cls-1" d="M433.81,1525.45h25.91a7.09,7.09,0,0,1,3.93,1.19l15.29,10.19a14.87,14.87,0,0,0,21-4.72,15.14,15.14,0,0,0-4.86-20.25l-20.47-13.65a14.85,14.85,0,0,0-8.25-2.5H424.71a14.87,14.87,0,0,0-10.51,4.36l-20.82,20.82a14.87,14.87,0,0,0-4.36,10.52v20.82a14.85,14.85,0,0,0,4.36,10.51l20.82,20.83a14.86,14.86,0,0,0,10.51,4.35h32.56a7.09,7.09,0,0,1,5,2.08l8,8a7.09,7.09,0,0,1,2.08,5v2.64a7.09,7.09,0,0,1-2.08,5l-8,8a7.12,7.12,0,0,1-5,2.07H431.36a7,7,0,0,1-3.93-1.19l-15.29-10.19a14.86,14.86,0,0,0-21,4.73,15.13,15.13,0,0,0,4.85,20.24l20.48,13.65a14.84,14.84,0,0,0,8.24,2.5h41.65a14.87,14.87,0,0,0,10.52-4.36l20.82-20.82a14.86,14.86,0,0,0,4.35-10.52v-20.82a14.86,14.86,0,0,0-4.35-10.51l-20.83-20.83a14.82,14.82,0,0,0-10.51-4.35H433.81a7.09,7.09,0,0,1-5-2.08l-8-8a7.08,7.08,0,0,1-2.07-5v-2.64a7.08,7.08,0,0,1,2.07-5l8-8A7.1,7.1,0,0,1,433.81,1525.45Z"/><path class="cls-1" d="M88.73,1500.07a14.85,14.85,0,0,0-10.51-4.36H15.75A14.87,14.87,0,0,0,.88,1510.58v124.53A15.15,15.15,0,0,0,15,1650.38a14.86,14.86,0,0,0,15.58-14.85V1602a7.1,7.1,0,0,1,7.09-7.09H78.22a14.84,14.84,0,0,0,10.51-4.35l20.83-20.83a14.84,14.84,0,0,0,4.35-10.51v-27.76a14.86,14.86,0,0,0-4.35-10.52Zm-6.63,55-8,8a7.09,7.09,0,0,1-5,2.08H37.7a7.09,7.09,0,0,1-7.09-7.09v-25.5a7.11,7.11,0,0,1,7.09-7.09H69.13a8.17,8.17,0,0,1,5,2.07l8,8a7.09,7.09,0,0,1,2.08,5v9.58A7.09,7.09,0,0,1,82.1,1555.09Z"/><path class="cls-1" d="M613.24,653.63a7.08,7.08,0,0,1,10,0l14.58,14.57a42.5,42.5,0,0,0,30,12.45H866.44a42.5,42.5,0,0,0,30-12.45l99.28-99.27a42.51,42.51,0,0,0,12.45-30.06V141.77a42.5,42.5,0,0,0-12.45-30.05L896.49,12.45A42.5,42.5,0,0,0,866.44,0H667.89a42.5,42.5,0,0,0-30,12.45l-99.28,99.27a42.49,42.49,0,0,0-12.44,30.05v397.1a42.5,42.5,0,0,0,12.44,30.06l14.58,14.57a7.08,7.08,0,0,1,0,10l-44,44a7.08,7.08,0,0,1-10,0l-44-44a7.08,7.08,0,0,1,0-10l14.57-14.57a42.51,42.51,0,0,0,12.45-30.06V373.42a42.5,42.5,0,0,0-42.5-42.5H208.66c-23.31,0-42.81,18.47-43.2,41.77A42.51,42.51,0,0,0,208,415.92H390A7.08,7.08,0,0,1,397.1,423v95.33a7.11,7.11,0,0,1-2.08,5L324.8,593.57a7.1,7.1,0,0,1-5,2.08H162.31a7.09,7.09,0,0,1-5-2.08L87.08,523.35a7.11,7.11,0,0,1-2.08-5v-356a7.09,7.09,0,0,1,2.08-5L157.3,87.08a7.09,7.09,0,0,1,5-2.08H319.79a7.1,7.1,0,0,1,5,2.08l84.75,84.75a42.5,42.5,0,1,0,60.1-60.11L370.38,12.45A42.51,42.51,0,0,0,340.32,0H141.77a42.5,42.5,0,0,0-30.05,12.45L12.45,111.72A42.5,42.5,0,0,0,0,141.77v397.1a42.51,42.51,0,0,0,12.45,30.06l99.27,99.27a42.5,42.5,0,0,0,30.05,12.45H340.32a42.51,42.51,0,0,0,30.06-12.45L385,653.63a7.08,7.08,0,0,1,10,0l44,44a7.08,7.08,0,0,1,0,10l-44,44a7.09,7.09,0,0,1-10,0l-14.57-14.58a42.5,42.5,0,0,0-30.06-12.44H141.77a42.49,42.49,0,0,0-30.05,12.44L12.45,836.39A42.5,42.5,0,0,0,0,866.44v397.1a42.5,42.5,0,0,0,12.45,30l99.27,99.28a42.49,42.49,0,0,0,30.05,12.44H340.32a42.5,42.5,0,0,0,30.06-12.44l99.27-99.28a42.5,42.5,0,0,0,12.45-30V1098.08a42.5,42.5,0,0,0-42.5-42.5H208.66c-23.31,0-42.81,18.47-43.2,41.77a42.51,42.51,0,0,0,42.5,43.23H390a7.08,7.08,0,0,1,7.09,7.09V1243a7.09,7.09,0,0,1-2.08,5l-70.22,70.23a7.09,7.09,0,0,1-5,2.07H162.31a7.08,7.08,0,0,1-5-2.07L87.08,1248a7.09,7.09,0,0,1-2.08-5V887a7.09,7.09,0,0,1,2.08-5l70.22-70.23a7.08,7.08,0,0,1,5-2.07H319.79a7.09,7.09,0,0,1,5,2.07l84.75,84.75a42.5,42.5,0,1,0,60.1-60.1l-14.57-14.58a7.08,7.08,0,0,1,0-10l44-44a7.08,7.08,0,0,1,10,0l44,44a7.08,7.08,0,0,1,0,10l-14.58,14.58a42.49,42.49,0,0,0-12.44,30.05v397.1a42.49,42.49,0,0,0,12.44,30l99.28,99.28a42.49,42.49,0,0,0,30,12.44H866.44a42.49,42.49,0,0,0,30-12.44l99.28-99.28a42.5,42.5,0,0,0,12.45-30V866.44a42.5,42.5,0,0,0-12.45-30.05l-99.28-99.28a42.49,42.49,0,0,0-30-12.44H667.89a42.49,42.49,0,0,0-30,12.44l-14.58,14.58a7.08,7.08,0,0,1-10,0l-44-44a7.1,7.1,0,0,1,0-10Zm0-496.33,70.23-70.22a7.09,7.09,0,0,1,5-2.08H845.9a7.09,7.09,0,0,1,5,2.08l70.23,70.22a7.09,7.09,0,0,1,2.08,5v356a7.11,7.11,0,0,1-2.08,5l-70.23,70.22a7.09,7.09,0,0,1-5,2.08H688.43a7.09,7.09,0,0,1-5-2.08l-70.23-70.22a7.1,7.1,0,0,1-2.07-5v-356A7.08,7.08,0,0,1,613.19,157.3Zm75.24,652.37H845.9a7.08,7.08,0,0,1,5,2.07L921.14,882a7.09,7.09,0,0,1,2.08,5v356a7.09,7.09,0,0,1-2.08,5l-70.23,70.23a7.08,7.08,0,0,1-5,2.07H688.43a7.08,7.08,0,0,1-5-2.07L613.19,1248a7.08,7.08,0,0,1-2.07-5V887a7.08,7.08,0,0,1,2.07-5l70.23-70.23A7.08,7.08,0,0,1,688.43,809.67Z"/><path class="cls-1" d="M368,1633.89l-6.91-62.2h0l-7-62.74a14.86,14.86,0,0,0-14.77-13.23H283.82A14.87,14.87,0,0,0,269,1508.94l-7,62.74h0l-6.91,62.2a14.87,14.87,0,0,0,29.55,3.28l4.75-42.79a7.1,7.1,0,0,1,7.05-6.31h30.15a7.09,7.09,0,0,1,7,6.31l4.76,42.79a14.87,14.87,0,0,0,14.75,13.23,13.21,13.21,0,0,0,1.66-.1A14.87,14.87,0,0,0,368,1633.89Zm-73.67-83.42,2.08-18.72a7.09,7.09,0,0,1,7.05-6.3H319.7a7.08,7.08,0,0,1,7,6.3l2.08,18.72a7.08,7.08,0,0,1-7,7.87H301.39A7.09,7.09,0,0,1,294.34,1550.47Z"/></g></g></svg>