<svg xmlns="http://www.w3.org/2000/svg" viewBox="0 0 1008.17 1405.29"><path d="M613.24 653.63a7.07 7.07 0 0110 0l14.58 14.57a42.49 42.49 0 0030 12.45h198.62a42.49 42.49 0 0030-12.45l99.28-99.27a42.52 42.52 0 0012.45-30.06v-397.1a42.5 42.5 0 00-12.45-30.05l-99.23-99.27A42.5 42.5 0 00866.44 0H667.89a42.49 42.49 0 00-30 12.45l-99.28 99.27a42.49 42.49 0 00-12.44 30.05v397.1a42.51 42.51 0 0012.44 30.06l14.58 14.57a7.07 7.07 0 010 10l-44 44a7.07 7.07 0 01-10 0l-44-44a7.07 7.07 0 010-10l14.57-14.57a42.52 42.52 0 0012.45-30.06V373.42a42.5 42.5 0 00-42.5-42.5h-231c-23.31 0-42.81 18.47-43.2 41.77a42.5 42.5 0 0041.78 43.22H390a7.08 7.08 0 017.1 7.06v95.35a7.1 7.1 0 01-2.08 5l-70.22 70.25a7.1 7.1 0 01-5 2.08H162.31a7.06 7.06 0 01-5-2.08l-70.23-70.22a7.1 7.1 0 01-2.08-5v-356a7.06 7.06 0 012.08-5l70.22-70.27a7.06 7.06 0 015-2.08h157.49a7.1 7.1 0 015 2.08l84.75 84.75a42.5 42.5 0 1060.1-60.11l-99.26-99.27A42.52 42.52 0 00340.32 0H141.77a42.5 42.5 0 00-30.05 12.45l-99.27 99.27A42.5 42.5 0 000 141.77v397.1a42.52 42.52 0 0012.45 30.06l99.27 99.27a42.5 42.5 0 0030.05 12.45h198.55a42.52 42.52 0 0030.06-12.45L385 653.63a7.07 7.07 0 0110 0l44 44a7.07 7.07 0 010 10l-44 44a7.09 7.09 0 01-10 0l-14.57-14.58a42.51 42.51 0 00-30.06-12.44h-198.6a42.49 42.49 0 00-30.05 12.44l-99.27 99.34A42.5 42.5 0 000 866.44v397.1a42.49 42.49 0 0012.45 30l99.27 99.28a42.49 42.49 0 0030.05 12.44h198.55a42.51 42.51 0 0030.06-12.44l99.27-99.28a42.49 42.49 0 0012.45-30v-165.46a42.5 42.5 0 00-42.5-42.5H208.66c-23.31 0-42.81 18.47-43.2 41.77a42.5 42.5 0 0041.78 43.22H390a7.08 7.08 0 017.09 7.07V1243a7.06 7.06 0 01-2.08 5l-70.22 70.23a7.11 7.11 0 01-5 2.07H162.31a7.09 7.09 0 01-5-2.07L87.08 1248a7.06 7.06 0 01-2.08-5V887a7.06 7.06 0 012.08-5l70.22-70.23a7.09 7.09 0 015-2.07h157.49a7.11 7.11 0 015 2.07l84.75 84.75a42.5 42.5 0 0060.8-59.4l-.7-.7-14.57-14.58a7.07 7.07 0 010-10l44-44a7.07 7.07 0 0110 0l44 44a7.07 7.07 0 010 10l-14.58 14.58a42.49 42.49 0 00-12.44 30.05v397.1a42.48 42.48 0 0012.44 30l99.28 99.28a42.48 42.48 0 0030 12.44h198.67a42.48 42.48 0 0030-12.44l99.28-99.28a42.49 42.49 0 0012.45-30V866.44a42.5 42.5 0 00-12.45-30.05l-99.28-99.28a42.48 42.48 0 00-30-12.44H667.89a42.48 42.48 0 00-30 12.44l-14.58 14.58a7.07 7.07 0 01-10 0l-44-44a7.09 7.09 0 010-10zm0-496.33l70.23-70.22a7.06 7.06 0 015-2.08H845.9a7.06 7.06 0 015 2.08l70.23 70.22a7.06 7.06 0 012.08 5v356a7.1 7.1 0 01-2.08 5l-70.23 70.22a7.06 7.06 0 01-5 2.08H688.43a7.06 7.06 0 01-5-2.08L613.2 523.3a7.11 7.11 0 01-2.07-5v-356a7.1 7.1 0 012.06-5zm75.24 652.37H845.9a7.09 7.09 0 015 2.07L921.14 882a7.06 7.06 0 012.08 5v356a7.06 7.06 0 01-2.08 5l-70.23 70.23a7.09 7.09 0 01-5 2.07H688.43a7.09 7.09 0 01-5-2.07L613.19 1248a7.09 7.09 0 01-2.07-5V887a7.11 7.11 0 012.07-5l70.23-70.23a7.09 7.09 0 015-2.1z" fill="#fff"/></svg>